<svg xmlns="http://www.w3.org/2000/svg" width="221.833" height="198.405" viewBox="0 0 221.833 198.405">
  <g id="Group_284" data-name="Group 284" transform="translate(-66.167 -64)">
    <path id="Subtraction_2" data-name="Subtraction 2" d="M13.01,172.118a3.544,3.544,0,0,1-3.08-1.393l-.1-.1c-.462-.494-.462-.494-1.187-7.53l-.178-1.724c-.062-.6-.125-1.211-.189-1.832l-.065-.627v-.042l-.056-.541c-.247-2.386-.479-4.635-.606-5.731-.44-3.982-.6-5.489-1-9.26v-.007l-.213-2.007-.209-1.971c-.143-1.442-.29-2.9-.42-4.194v-.014l-.085-.84V134.3l-.021-.2c-.163-1.612-.291-2.882-.332-3.343-.337-3.561-1.4-13.621-1.58-15.138-.118-.884-.278-2.3-.34-3.148a6.24,6.24,0,0,0-.2-1.447h0c-.039.033-.256,1.115-.48,2.46l-.066.359c-.2,1.113-.4,2.163-.435,2.29a13.341,13.341,0,0,0-.28,1.634c-.158,1.192-1.672,10.2-1.92,11.525-.192,1.012-.5,2.79-1.18,6.8l-.1.6-.124.726v.009c-1.058,6.2-1.058,6.2-1.88,6.825-.049.036-.1.075-.152.116a3.252,3.252,0,0,1-2.56.842c-2.069,0-2.619-.463-4.9-4.128-.934-1.486-1.962-3.116-2.34-3.664-.389-.6-.661-1.034-.661-1.067a2.573,2.573,0,0,0-.38-.6l-.36-.534-1.28,1.858a16.063,16.063,0,0,1-8.88,6.622l-.11.03c-1.667.455-2.115.578-8.343.578-2.133,0-4.917-.014-8.921-.035l-2.626-6.559-.245-.031,17.666.049,1.38-.6c1.581-.688,2.3-1.385,4.02-3.922,2.211-3.25,3.538-4.524,5.68-5.453a3.6,3.6,0,0,1,1.648-.414c.192,0,.417.011.752.036a5.537,5.537,0,0,1,3.78,1.427,7.248,7.248,0,0,1,1.821,2.8.2.2,0,0,0,.2.19c.116,0,.2-.167.2-.4,0-.433.728-4.773,1-6.055.118-.469.436-2.419.774-4.484v-.011l.024-.149c.328-2.126.748-4.569.9-5.419l.043-.243c.065-.374.132-.756.2-1.168l.019-.106c.244-1.392.546-3.119,1.035-5.965l.071-.427.015-.093c.191-1.157.408-2.467.513-3.007.2-1.242.373-2.283.5-3.011l.077-.449c.168-.988.341-1.993.443-2.475.076-.43.243-1.4.393-2.272l.186-1.082c.14-.89.338-2.084.589-3.549l.011-.064c.138-.694.317-1.736.4-2.322l.062-.368c1.2-7.1,1.2-7.1,2.608-8.028l.049-.033a2.853,2.853,0,0,1,2.06-.6,2.969,2.969,0,0,1,1.98.517c1.652,1.061,1.7,1.208,2.34,7.826.155,1.654.378,3.895.5,4.9.011.108.023.225.035.35l.037.37.019.186c.1,1,.215,2.123.288,2.964.041.388.1.9.158,1.471v.027l.012.116c.116,1.079.247,2.3.348,3.289.179,1.554.4,3.666.5,4.731.1,1.031.279,2.728.4,3.785.1.983.275,2.742.4,3.87.045.486.117,1.211.212,2.15v.013c.088.867.2,1.982.287,2.912.086.812.177,1.7.266,2.554l.055.532c.073.71.137,1.329.179,1.73.082.965.309,2.989.481,4.387.148,1.358.493,4.58.74,7.053.225,2.463.481,4.665.56,4.989.043.194.078.315.122.315.079,0,.185-.407.379-1.261,1.138-5.015,1.594-5.839,3.759-6.778a5.757,5.757,0,0,1,2.268-.531,4.2,4.2,0,0,1,1.433.256,2.97,2.97,0,0,0,.814.237c.18,0,.238-.11.306-.374.065-.223.655-1.919,1.14-3.3.6-1.672,1.267-3.6,1.52-4.387.263-.818.633-1.9.779-2.322,2.68-7.879,2.68-7.879,4.22-8.515a4.343,4.343,0,0,1,1.666-.322,3.78,3.78,0,0,1,3.094,1.372c.412.583.813,1.7,2.22,5.831.564,1.707,1.194,3.529,1.36,3.956s.573,1.564.94,2.58c1.035,2.962,2.419,6.724,2.84,7.827l.07.182v.008c.2.521.371.961.406,1.066a.143.143,0,0,0,.154.1,2.179,2.179,0,0,0,.766-.286,6.861,6.861,0,0,1,3.073-.757,9.239,9.239,0,0,1,3.728.912c.3.129.654.284,1.053.459.517.227.932.408,1.167.5a7.5,7.5,0,0,0,2,.4c.466.029,5.14.063,13.892.1l-1.031,6.5c-6.453-.018-10.23-.034-10.922-.046-3.328-.086-3.873-.14-5.3-.533a24.457,24.457,0,0,1-2.679-.963,6.379,6.379,0,0,0-1.115-.466h0c-.006.011-.038.059-.086.133l-.029.044c-.1.16-.32.485-.544.838a8.292,8.292,0,0,1-3,2.633,3.1,3.1,0,0,1-1.292.264,6.019,6.019,0,0,1-2.189-.488,3.785,3.785,0,0,1-2.561-2.167c-.783-1.507-3.48-8.5-5.14-13.16-.392-1.118-.762-2.05-.82-2.133a.01.01,0,0,0-.008-.005,75.115,75.115,0,0,0-2.952,8.331c-1.328,4.053-2.015,4.953-4.08,5.35a4.078,4.078,0,0,1-.763.07,3.649,3.649,0,0,1-2.236-.689c-.273-.227-.429-.342-.523-.342-.074,0-.111.069-.158.2-.1.3-1.059,5-1.24,6.159-.029.136-.077.37-.134.66v.006l-.01.05c-.044.221-.091.453-.134.66-.116.452-.4,2.089-.7,3.87-.08.473-.173,1.028-.272,1.618v.005l-.1.6v0l-.1.617c-.193,1.153-.376,2.242-.522,3.085-.812,4.93-1.281,7.891-1.52,9.6-.26,1.864-.552,2.386-1.84,3.285a2.7,2.7,0,0,1-2,.531Z" transform="translate(114.499 9.728)" fill="#fff"/>
    <path id="iconmonstr-sound-wave-4" d="M77.909,33.614c-6.032,0-5.659,18.96-8.5,27.546-.478,1.428-1.782,1.245-2.1-.3C64.076,44.866,65.551,6,56.786,6c-9.176,0-6.908,50.295-10.48,70.79-.264,1.556-1.6,1.692-1.987.189C40.546,62.357,40.97,30.46,33.831,30.46c-7.386,0-6.757,26.721-9.65,37.486-.381,1.441-1.643,1.489-2.067.068C20.007,60.916,19.333,46.6,11.368,46.6H2.092C.939,46.6,0,48.114,0,49.975s.939,3.39,2.092,3.39h9.276c6.59,0,4.351,23.574,11.963,23.574,7.059,0,6.3-25.645,9.318-37.012.369-1.407,1.6-1.367,1.953.041C37.978,53.818,37.915,87.2,45.674,87.2c8.706,0,5.6-53.157,10.241-71.866.348-1.428,1.61-1.5,2.008-.081,4.313,15.224,2.041,54.984,9.826,54.984,6.87,0,7.281-18.31,9.348-27.323.34-1.434,1.564-1.536,1.987-.183,2.163,6.773,3.546,17.4,10.06,17.4h9.369c1.153,0,2.092-1.516,2.092-3.376s-.939-3.383-2.092-3.383h-9.37c-5.546,0-4.682-19.758-11.234-19.758Z" transform="translate(176.565 100.846)" fill="#fff"/>
    <line id="Line_1" data-name="Line 1" x2="0.5" y2="153" transform="translate(177.836 104.348) rotate(0.5)" fill="none" stroke="#fff" stroke-linecap="round" stroke-width="6.7"/>
    <g id="_334fd9f77ee2498a6d36583b1bed4fee" data-name="334fd9f77ee2498a6d36583b1bed4fee" transform="translate(56.164 2.264)">
      <g id="Group_1" data-name="Group 1" transform="translate(10.004 61.726)">
        <path id="Path_1" data-name="Path 1" d="M64.406-449.063c-23.143,2-44,18.813-51.592,41.628-2.422,7.264-3.026,12.246-2.748,21.325a61.966,61.966,0,0,0,3.4,20.117,90.225,90.225,0,0,0,14.3,25.613c9.545,11.641,18.439,19.464,43.164,38.18,16.438,12.434,21.28,16.391,28.358,23.283,7.449,7.264,12.386,13.783,15.924,21.094,2.981,6.146,4.19,7.4,6.334,6.845,1.956-.466,2.422-1.025,4.378-5.308,3.445-7.449,8.194-13.876,15.832-21.466,6.193-6.1,13.317-12.013,29.056-23.981C185.568-313,190.69-317.1,197.348-322.968c19.231-16.952,29.9-33.388,33.574-51.875,1.211-5.96,1.211-19.417.048-24.911a62.659,62.659,0,0,0-17.321-32.363,56.09,56.09,0,0,0-23.188-14.435c-6.519-2.141-11.175-2.748-19.139-2.422-11.035.466-20.3,3.586-29.941,10.152-4.842,3.307-13.643,12.2-17.321,17.509l-2.981,4.283-1.63-2.653A74.637,74.637,0,0,0,101.613-439a56.411,56.411,0,0,0-37.207-10.063Zm16.857,8.753c14.482,3.771,25.751,13.6,34.411,30.033,2.608,4.982,3.819,6.1,5.96,5.634,1.677-.373,2.1-.885,4.889-5.82,7.311-12.9,17.554-22.77,28.358-27.333,12.712-5.356,26.355-4.935,39.393,1.3a49.611,49.611,0,0,1,24.26,23.9,53.544,53.544,0,0,1,5.4,27.706c-.466,9.593-2.282,16.25-6.845,25.192-4.8,9.4-12.386,18.765-22.536,27.94-7.4,6.659-10.99,9.546-27.007,21.884-16.95,13.038-22.724,17.835-29.988,24.913a94.154,94.154,0,0,0-13.643,16.017c-1.3,1.956-2.515,3.726-2.7,3.911-.186.233-1.351-1.211-2.56-3.212-4.656-7.45-11.549-15.134-21-23.421-5.589-4.935-10.757-8.986-29.289-23.188-12.479-9.593-17.787-14.016-24.4-20.395-18.161-17.554-26.122-33.9-26.122-53.6,0-14.808,4.982-27.054,15.087-37.159a57.37,57.37,0,0,1,30.314-15.18,62.882,62.882,0,0,1,18.018.883Z" transform="translate(-10.004 449.274)" fill="#fff"/>
      </g>
    </g>
  </g>
</svg>
