<svg xmlns="http://www.w3.org/2000/svg" width="28" height="28" viewBox="0 0 28 28">
  <g id="_pause" data-name=" pause" transform="translate(-644 -950.823)">
    <rect id="Rectangle_Copy_67" data-name="Rectangle Copy 67" width="28" height="28" transform="translate(644 950.823)" fill="rgba(0,0,0,0)"/>
    <path id="Icon" d="M12,16h-.666a2,2,0,0,1-2-2V2a2,2,0,0,1,2-2H12a2,2,0,0,1,2,2V14A2,2,0,0,1,12,16ZM2.334,16A2.313,2.313,0,0,1,0,13.714V2.285A2.312,2.312,0,0,1,2.334,0,2.312,2.312,0,0,1,4.667,2.285V13.714A2.312,2.312,0,0,1,2.334,16Z" transform="translate(652 955.823)" fill="#fff"/>
  </g>
</svg>
