<svg xmlns="http://www.w3.org/2000/svg" width="24" height="24" viewBox="0 0 24 24">
  <g id="_cached" data-name=" cached" transform="translate(-134 -198)">
    <rect id="Path" width="24" height="24" transform="translate(134 198)" fill="rgba(0,0,0,0)"/>
    <path id="Icon" d="M10.292,16a7.794,7.794,0,0,1-2.95-.57,1.007,1.007,0,0,1-.613-.734,1.009,1.009,0,0,1,.973-1.2.877.877,0,0,1,.34.068,5.86,5.86,0,0,0,2.25.44,6.007,6.007,0,0,0,6-6H14.5a.492.492,0,0,1-.463-.308.5.5,0,0,1,.113-.552l2.79-2.79a.492.492,0,0,1,.7.01l2.79,2.79a.485.485,0,0,1,.114.539A.492.492,0,0,1,20.082,8h-1.79A8.01,8.01,0,0,1,10.292,16ZM3.3,11.79a.5.5,0,0,1-.355-.15L.152,8.851a.486.486,0,0,1-.115-.54A.491.491,0,0,1,.5,8h1.79a8.01,8.01,0,0,1,8-8,7.778,7.778,0,0,1,2.95.571,1.008,1.008,0,0,1,.613.734,1.007,1.007,0,0,1-.973,1.2.879.879,0,0,1-.34-.068A5.861,5.861,0,0,0,10.292,2a6.006,6.006,0,0,0-6,6H6.081a.5.5,0,0,1,.466.31.488.488,0,0,1-.106.54l-2.79,2.79A.5.5,0,0,1,3.3,11.79Z" transform="translate(135.708 202)" fill="#fff"/>
  </g>
</svg>
