<svg xmlns="http://www.w3.org/2000/svg" width="18.001" height="18.001" viewBox="0 0 18.001 18.001">
  <g id="_skip_next" data-name=" skip_next" transform="translate(-518.999 -976)">
    <path id="Icon" d="M565,1018h-1a1,1,0,0,1-1-1v-16a1,1,0,0,1,1-1h1a1,1,0,0,1,1,1v16A1,1,0,0,1,565,1018Zm-15.491-1.395a1.509,1.509,0,0,1-1.51-1.5v-12.211a1.508,1.508,0,0,1,2.371-1.229l8.655,6.12a1.462,1.462,0,0,1,.63,1.208,1.491,1.491,0,0,1-.63,1.238l-8.655,6.1A1.517,1.517,0,0,1,549.509,1016.606Z" transform="translate(-29 -24)" fill="#fff"/>
  </g>
</svg>
